<svg width="14" height="14" viewBox="0 0 14 14" fill="none" xmlns="http://www.w3.org/2000/svg">
<path d="M13.7103 6.8853L7.3493 0.153321C7.3035 0.104718 7.2491 0.0661594 7.18921 0.0398506C7.12932 0.0135419 7.06512 0 7.00029 0C6.93545 0 6.87126 0.0135419 6.81137 0.0398506C6.75148 0.0661594 6.69708 0.104718 6.65128 0.153321L0.290327 6.8853C0.105012 7.08157 0 7.34816 0 7.62621C0 8.20356 0.443213 8.67297 0.988349 8.67297H1.65857V13.4766C1.65857 13.7661 1.87941 14 2.15275 14H6.01194V10.3363H7.74155V14H11.8478C12.1212 14 12.342 13.7661 12.342 13.4766V8.67297H13.0122C13.2748 8.67297 13.5265 8.56339 13.7118 8.36548C14.0963 7.95659 14.0963 7.29419 13.7103 6.8853Z" fill="#3C4761"/>
</svg>
