<svg width="16" height="16" viewBox="0 0 16 16" fill="none" xmlns="http://www.w3.org/2000/svg">
<path fill-rule="evenodd" clip-rule="evenodd" d="M4.63667 2.90125C4.87528 3.18166 4.84141 3.60241 4.561 3.84102C3.72561 4.55192 3.12641 5.505 2.84544 6.57167C2.56446 7.63839 2.61554 8.7664 2.99163 9.80275C3.36771 10.8391 4.05034 11.733 4.94622 12.3641C5.84204 12.9952 6.90803 13.3333 7.99992 13.3333C9.0918 13.3333 10.1578 12.9952 11.0536 12.3641C11.9495 11.733 12.6321 10.8391 13.0082 9.80275C13.3843 8.7664 13.4354 7.63839 13.1544 6.57167C12.8734 5.505 12.2742 4.55192 11.4388 3.84102C11.1584 3.60241 11.1246 3.18166 11.3632 2.90125C11.6018 2.62085 12.0225 2.58697 12.3029 2.82559C13.3467 3.71379 14.0937 4.90309 14.4437 6.23205C14.7938 7.56097 14.7302 8.96614 14.2616 10.2576C13.7929 11.5491 12.9414 12.6652 11.8215 13.4541C10.7016 14.2431 9.36749 14.6666 7.99992 14.6666C6.63235 14.6666 5.29828 14.2431 4.17832 13.4541C3.05844 12.6652 2.20697 11.5491 1.73828 10.2576C1.2696 8.96614 1.20604 7.56097 1.55609 6.23205C1.90615 4.90309 2.65315 3.71379 3.6969 2.82559C3.9773 2.58697 4.39805 2.62085 4.63667 2.90125Z" fill="#4170FF"/>
<path fill-rule="evenodd" clip-rule="evenodd" d="M7.99992 1.33337C8.36811 1.33337 8.66659 1.63185 8.66659 2.00004V8.66671C8.66659 9.0349 8.36811 9.33337 7.99992 9.33337C7.63173 9.33337 7.33325 9.0349 7.33325 8.66671V2.00004C7.33325 1.63185 7.63173 1.33337 7.99992 1.33337Z" fill="#4170FF"/>
</svg>
