<svg xmlns="http://www.w3.org/2000/svg" viewBox="0 0 87.68 120.23"><title>&#x8D44;&#x6E90; 79</title><path d="M42.52 90.75v26.88c0 2.49-.1 2.65-2.64 2.57a40.36 40.36 0 0 1-17.52-4.82A40.69 40.69 0 0 1 5.64 99.51 37.81 37.81 0 0 1 0 80c.06-10.75 0-21.54 0-32.32 0-2.36.16-2.5 2.58-2.5 6.69 0 13.39-.13 20.07 0a20.83 20.83 0 0 1 13.21 5.37c3.55 3 5.27 7 6.45 11.31a9.63 9.63 0 0 1 .19 2.47q.03 13.22.02 26.42zm-21.4-27a4.07 4.07 0 0 0 4.4-4.11 4.5 4.5 0 0 0-4.29-4.18A4.24 4.24 0 0 0 17 59.81a4 4 0 0 0 4.12 3.96z" fill="#5981e9"/><path d="M56.56 87h29.21c1.35 0 1.94.45 1.93 1.83v29.54c0 1.37-.6 1.84-1.92 1.85a38.64 38.64 0 0 1-11-1.91A40.79 40.79 0 0 1 56.5 106.8a41.4 41.4 0 0 1-9-15 43.87 43.87 0 0 1-2.33-16.11c.13-3.64-.06-7.3 0-11C45.39 57.46 49 51.92 55 48.16a19.78 19.78 0 0 1 11-3c6.42.14 12.83 0 19.25 0 2.17 0 2.35.21 2.36 2.38 0 9.56-3.64 17.74-9.41 25.09A41.47 41.47 0 0 1 62 84.82c-1.76.77-3.62 1.3-5.44 1.94z" fill="#5a80eb"/><path d="M0 21.22V2.29C0 .22.24 0 2.33 0h37.82c2.19 0 2.36.17 2.36 2.37 0 7 .06 14.06 0 21.08a18.3 18.3 0 0 1-2.69 9A20.3 20.3 0 0 1 27.1 42.1a21.22 21.22 0 0 1-6.41.61 130.48 130.48 0 0 0-15.06.1C.29 43.23 0 43 0 37.65V21.22zM45.18 13.08V1.96c0-1.42.56-2 2-2a41.48 41.48 0 0 1 11 1.94 38.84 38.84 0 0 1 16.76 10A37.75 37.75 0 0 1 84.51 26c1.73 4.65 3.15 9.29 3.15 14.28 0 2.07-.21 2.16-2.28 2.31-7.22.5-14.43 0-21.64-.12-6.25-.14-11.17-3.28-14.81-8.45a21.66 21.66 0 0 1-3.77-14.11c.11-2.3.02-4.57.02-6.83z" fill="#27d6d7"/></svg>