<svg width="40" height="40" viewBox="0 0 40 40" fill="none" xmlns="http://www.w3.org/2000/svg">
<path d="M6.37822 7.5144H33.7251C34.5629 7.5144 34.9817 7.93328 34.9817 8.77104C34.9817 9.60881 34.5629 10.0277 33.7251 10.0277H6.37822C5.54046 10.0277 5.12158 9.60881 5.12158 8.77104C5.12158 7.93328 5.54046 7.5144 6.37822 7.5144Z" fill="#7487A3"/>
<path d="M6.37822 29.9543H33.7251C34.5629 29.9543 34.9817 30.3732 34.9817 31.211C34.9817 32.0487 34.5629 32.4676 33.7251 32.4676H6.37822C5.54046 32.4676 5.12158 32.0487 5.12158 31.211C5.12158 30.3732 5.54046 29.9543 6.37822 29.9543Z" fill="#7487A3"/>
<path d="M18.8084 15.0425H33.7252C34.563 15.0425 34.9818 15.4614 34.9818 16.2991C34.9818 17.1369 34.563 17.5558 33.7252 17.5558H18.8084C17.9706 17.5558 17.5518 17.1369 17.5518 16.2991C17.5518 15.4614 17.9706 15.0425 18.8084 15.0425Z" fill="#7487A3"/>
<path d="M18.8084 22.5825H33.7252C34.563 22.5825 34.9818 23.0014 34.9818 23.8392C34.9818 24.6769 34.563 25.0958 33.7252 25.0958H18.8084C17.9706 25.0958 17.5518 24.6769 17.5518 23.8392C17.5518 23.0014 17.9706 22.5825 18.8084 22.5825Z" fill="#7487A3"/>
<path d="M5.07471 20.0062L12.5446 24.9882V15.0242L5.07471 20.0062Z" fill="#7487A3"/>
</svg>
